<mxfile host="app.diagrams.net" agent="Mozilla/5.0 (Windows NT 10.0; Win64; x64) AppleWebKit/537.36 (KHTML, like Gecko) Chrome/131.0.0.0 Safari/537.36" version="26.0.6">
  <diagram id="C5RBs43oDa-KdzZeNtuy" name="Page-1">
    <mxGraphModel dx="889" dy="446" grid="1" gridSize="10" guides="1" tooltips="1" connect="1" arrows="1" fold="1" page="1" pageScale="1" pageWidth="827" pageHeight="1169" math="0" shadow="0">
      <root>
        <mxCell id="WIyWlLk6GJQsqaUBKTNV-0" />
        <mxCell id="WIyWlLk6GJQsqaUBKTNV-1" parent="WIyWlLk6GJQsqaUBKTNV-0" />
        <mxCell id="axCRcWsU4pVJFEmlz38G-58" value="User" style="swimlane;fontStyle=5;align=center;verticalAlign=top;childLayout=stackLayout;horizontal=1;startSize=33.44679676402699;horizontalStack=0;resizeParent=1;resizeParentMax=0;resizeLast=0;collapsible=0;marginBottom=0;" vertex="1" parent="WIyWlLk6GJQsqaUBKTNV-1">
          <mxGeometry x="394" y="630" width="170" height="165.446796764027" as="geometry" />
        </mxCell>
        <mxCell id="axCRcWsU4pVJFEmlz38G-59" value="-userId : int" style="text;strokeColor=none;fillColor=none;align=left;verticalAlign=top;spacingLeft=4;spacingRight=4;overflow=hidden;rotatable=0;points=[[0,0.5],[1,0.5]];portConstraint=eastwest;" vertex="1" parent="axCRcWsU4pVJFEmlz38G-58">
          <mxGeometry y="33.44679676402699" width="170" height="33" as="geometry" />
        </mxCell>
        <mxCell id="axCRcWsU4pVJFEmlz38G-60" value="-name : String" style="text;strokeColor=none;fillColor=none;align=left;verticalAlign=top;spacingLeft=4;spacingRight=4;overflow=hidden;rotatable=0;points=[[0,0.5],[1,0.5]];portConstraint=eastwest;" vertex="1" parent="axCRcWsU4pVJFEmlz38G-58">
          <mxGeometry y="66.446796764027" width="170" height="33" as="geometry" />
        </mxCell>
        <mxCell id="axCRcWsU4pVJFEmlz38G-61" value="-email : String" style="text;strokeColor=none;fillColor=none;align=left;verticalAlign=top;spacingLeft=4;spacingRight=4;overflow=hidden;rotatable=0;points=[[0,0.5],[1,0.5]];portConstraint=eastwest;" vertex="1" parent="axCRcWsU4pVJFEmlz38G-58">
          <mxGeometry y="99.446796764027" width="170" height="33" as="geometry" />
        </mxCell>
        <mxCell id="axCRcWsU4pVJFEmlz38G-62" value="-password : String" style="text;strokeColor=none;fillColor=none;align=left;verticalAlign=top;spacingLeft=4;spacingRight=4;overflow=hidden;rotatable=0;points=[[0,0.5],[1,0.5]];portConstraint=eastwest;" vertex="1" parent="axCRcWsU4pVJFEmlz38G-58">
          <mxGeometry y="132.446796764027" width="170" height="33" as="geometry" />
        </mxCell>
        <mxCell id="axCRcWsU4pVJFEmlz38G-64" value="JobSeeker" style="swimlane;fontStyle=5;align=center;verticalAlign=top;childLayout=stackLayout;horizontal=1;startSize=44.793182373046875;horizontalStack=0;resizeParent=1;resizeParentMax=0;resizeLast=0;collapsible=0;marginBottom=0;" vertex="1" parent="WIyWlLk6GJQsqaUBKTNV-1">
          <mxGeometry x="47" y="896" width="134" height="89.79318237304688" as="geometry" />
        </mxCell>
        <mxCell id="axCRcWsU4pVJFEmlz38G-65" value="-cvID : int" style="text;strokeColor=none;fillColor=none;align=left;verticalAlign=top;spacingLeft=4;spacingRight=4;overflow=hidden;rotatable=0;points=[[0,0.5],[1,0.5]];portConstraint=eastwest;" vertex="1" parent="axCRcWsU4pVJFEmlz38G-64">
          <mxGeometry y="44.793182373046875" width="134" height="45" as="geometry" />
        </mxCell>
        <mxCell id="axCRcWsU4pVJFEmlz38G-67" value="Admin" style="swimlane;fontStyle=5;align=center;verticalAlign=top;childLayout=stackLayout;horizontal=1;startSize=35.54798041449653;horizontalStack=0;resizeParent=1;resizeParentMax=0;resizeLast=0;collapsible=0;marginBottom=0;" vertex="1" parent="WIyWlLk6GJQsqaUBKTNV-1">
          <mxGeometry x="232" y="872" width="150" height="143.54798041449652" as="geometry" />
        </mxCell>
        <mxCell id="axCRcWsU4pVJFEmlz38G-68" value="-adminID : int" style="text;strokeColor=none;fillColor=none;align=left;verticalAlign=top;spacingLeft=4;spacingRight=4;overflow=hidden;rotatable=0;points=[[0,0.5],[1,0.5]];portConstraint=eastwest;" vertex="1" parent="axCRcWsU4pVJFEmlz38G-67">
          <mxGeometry y="35.54798041449653" width="150" height="36" as="geometry" />
        </mxCell>
        <mxCell id="axCRcWsU4pVJFEmlz38G-69" value="-name : String" style="text;strokeColor=none;fillColor=none;align=left;verticalAlign=top;spacingLeft=4;spacingRight=4;overflow=hidden;rotatable=0;points=[[0,0.5],[1,0.5]];portConstraint=eastwest;" vertex="1" parent="axCRcWsU4pVJFEmlz38G-67">
          <mxGeometry y="71.54798041449652" width="150" height="36" as="geometry" />
        </mxCell>
        <mxCell id="axCRcWsU4pVJFEmlz38G-70" value="-email : String" style="text;strokeColor=none;fillColor=none;align=left;verticalAlign=top;spacingLeft=4;spacingRight=4;overflow=hidden;rotatable=0;points=[[0,0.5],[1,0.5]];portConstraint=eastwest;" vertex="1" parent="axCRcWsU4pVJFEmlz38G-67">
          <mxGeometry y="107.54798041449652" width="150" height="36" as="geometry" />
        </mxCell>
        <mxCell id="axCRcWsU4pVJFEmlz38G-72" value="Employer" style="swimlane;fontStyle=5;align=center;verticalAlign=top;childLayout=stackLayout;horizontal=1;startSize=37.9957389831543;horizontalStack=0;resizeParent=1;resizeParentMax=0;resizeLast=0;collapsible=0;marginBottom=0;" vertex="1" parent="WIyWlLk6GJQsqaUBKTNV-1">
          <mxGeometry x="432" y="914" width="95" height="59.9957389831543" as="geometry" />
        </mxCell>
        <mxCell id="axCRcWsU4pVJFEmlz38G-74" value="Freelancer" style="swimlane;fontStyle=5;align=center;verticalAlign=top;childLayout=stackLayout;horizontal=1;startSize=44.793182373046875;horizontalStack=0;resizeParent=1;resizeParentMax=0;resizeLast=0;collapsible=0;marginBottom=0;" vertex="1" parent="WIyWlLk6GJQsqaUBKTNV-1">
          <mxGeometry x="576" y="896" width="190" height="89.79318237304688" as="geometry" />
        </mxCell>
        <mxCell id="axCRcWsU4pVJFEmlz38G-75" value="-portfolio : String" style="text;strokeColor=none;fillColor=none;align=left;verticalAlign=top;spacingLeft=4;spacingRight=4;overflow=hidden;rotatable=0;points=[[0,0.5],[1,0.5]];portConstraint=eastwest;" vertex="1" parent="axCRcWsU4pVJFEmlz38G-74">
          <mxGeometry y="44.793182373046875" width="190" height="45" as="geometry" />
        </mxCell>
        <mxCell id="axCRcWsU4pVJFEmlz38G-77" value="CV" style="swimlane;fontStyle=5;align=center;verticalAlign=top;childLayout=stackLayout;horizontal=1;startSize=35.54798041449653;horizontalStack=0;resizeParent=1;resizeParentMax=0;resizeLast=0;collapsible=0;marginBottom=0;" vertex="1" parent="WIyWlLk6GJQsqaUBKTNV-1">
          <mxGeometry x="19.5" y="1180" width="189" height="143.54798041449652" as="geometry" />
        </mxCell>
        <mxCell id="axCRcWsU4pVJFEmlz38G-78" value="-cvID : int" style="text;strokeColor=none;fillColor=none;align=left;verticalAlign=top;spacingLeft=4;spacingRight=4;overflow=hidden;rotatable=0;points=[[0,0.5],[1,0.5]];portConstraint=eastwest;" vertex="1" parent="axCRcWsU4pVJFEmlz38G-77">
          <mxGeometry y="35.54798041449653" width="189" height="36" as="geometry" />
        </mxCell>
        <mxCell id="axCRcWsU4pVJFEmlz38G-79" value="-filePath : String" style="text;strokeColor=none;fillColor=none;align=left;verticalAlign=top;spacingLeft=4;spacingRight=4;overflow=hidden;rotatable=0;points=[[0,0.5],[1,0.5]];portConstraint=eastwest;" vertex="1" parent="axCRcWsU4pVJFEmlz38G-77">
          <mxGeometry y="71.54798041449652" width="189" height="36" as="geometry" />
        </mxCell>
        <mxCell id="axCRcWsU4pVJFEmlz38G-80" value="-reviewStatus : String" style="text;strokeColor=none;fillColor=none;align=left;verticalAlign=top;spacingLeft=4;spacingRight=4;overflow=hidden;rotatable=0;points=[[0,0.5],[1,0.5]];portConstraint=eastwest;" vertex="1" parent="axCRcWsU4pVJFEmlz38G-77">
          <mxGeometry y="107.54798041449652" width="189" height="36" as="geometry" />
        </mxCell>
        <mxCell id="axCRcWsU4pVJFEmlz38G-82" value="Job" style="swimlane;fontStyle=5;align=center;verticalAlign=top;childLayout=stackLayout;horizontal=1;startSize=30.92537841796875;horizontalStack=0;resizeParent=1;resizeParentMax=0;resizeLast=0;collapsible=0;marginBottom=0;" vertex="1" parent="WIyWlLk6GJQsqaUBKTNV-1">
          <mxGeometry x="382" y="1050" width="196" height="216.92537841796874" as="geometry" />
        </mxCell>
        <mxCell id="axCRcWsU4pVJFEmlz38G-83" value="-jobID : int" style="text;strokeColor=none;fillColor=none;align=left;verticalAlign=top;spacingLeft=4;spacingRight=4;overflow=hidden;rotatable=0;points=[[0,0.5],[1,0.5]];portConstraint=eastwest;" vertex="1" parent="axCRcWsU4pVJFEmlz38G-82">
          <mxGeometry y="30.92537841796875" width="196" height="31" as="geometry" />
        </mxCell>
        <mxCell id="axCRcWsU4pVJFEmlz38G-84" value="-title : String" style="text;strokeColor=none;fillColor=none;align=left;verticalAlign=top;spacingLeft=4;spacingRight=4;overflow=hidden;rotatable=0;points=[[0,0.5],[1,0.5]];portConstraint=eastwest;" vertex="1" parent="axCRcWsU4pVJFEmlz38G-82">
          <mxGeometry y="61.92537841796875" width="196" height="31" as="geometry" />
        </mxCell>
        <mxCell id="axCRcWsU4pVJFEmlz38G-85" value="-description : String" style="text;strokeColor=none;fillColor=none;align=left;verticalAlign=top;spacingLeft=4;spacingRight=4;overflow=hidden;rotatable=0;points=[[0,0.5],[1,0.5]];portConstraint=eastwest;" vertex="1" parent="axCRcWsU4pVJFEmlz38G-82">
          <mxGeometry y="92.92537841796874" width="196" height="31" as="geometry" />
        </mxCell>
        <mxCell id="axCRcWsU4pVJFEmlz38G-86" value="-requirements : String" style="text;strokeColor=none;fillColor=none;align=left;verticalAlign=top;spacingLeft=4;spacingRight=4;overflow=hidden;rotatable=0;points=[[0,0.5],[1,0.5]];portConstraint=eastwest;" vertex="1" parent="axCRcWsU4pVJFEmlz38G-82">
          <mxGeometry y="123.92537841796874" width="196" height="31" as="geometry" />
        </mxCell>
        <mxCell id="axCRcWsU4pVJFEmlz38G-87" value="-salary : float" style="text;strokeColor=none;fillColor=none;align=left;verticalAlign=top;spacingLeft=4;spacingRight=4;overflow=hidden;rotatable=0;points=[[0,0.5],[1,0.5]];portConstraint=eastwest;" vertex="1" parent="axCRcWsU4pVJFEmlz38G-82">
          <mxGeometry y="154.92537841796874" width="196" height="31" as="geometry" />
        </mxCell>
        <mxCell id="axCRcWsU4pVJFEmlz38G-88" value="-categoryID : id" style="text;strokeColor=none;fillColor=none;align=left;verticalAlign=top;spacingLeft=4;spacingRight=4;overflow=hidden;rotatable=0;points=[[0,0.5],[1,0.5]];portConstraint=eastwest;" vertex="1" parent="axCRcWsU4pVJFEmlz38G-82">
          <mxGeometry y="185.92537841796874" width="196" height="31" as="geometry" />
        </mxCell>
        <mxCell id="axCRcWsU4pVJFEmlz38G-90" value="JobApplication" style="swimlane;fontStyle=5;align=center;verticalAlign=top;childLayout=stackLayout;horizontal=1;startSize=31.99213350736178;horizontalStack=0;resizeParent=1;resizeParentMax=0;resizeLast=0;collapsible=0;marginBottom=0;" vertex="1" parent="WIyWlLk6GJQsqaUBKTNV-1">
          <mxGeometry x="368.5" y="1333" width="221" height="191.99213350736179" as="geometry" />
        </mxCell>
        <mxCell id="axCRcWsU4pVJFEmlz38G-91" value="-applicationID : int" style="text;strokeColor=none;fillColor=none;align=left;verticalAlign=top;spacingLeft=4;spacingRight=4;overflow=hidden;rotatable=0;points=[[0,0.5],[1,0.5]];portConstraint=eastwest;" vertex="1" parent="axCRcWsU4pVJFEmlz38G-90">
          <mxGeometry y="31.99213350736178" width="221" height="32" as="geometry" />
        </mxCell>
        <mxCell id="axCRcWsU4pVJFEmlz38G-92" value="-userID : int" style="text;strokeColor=none;fillColor=none;align=left;verticalAlign=top;spacingLeft=4;spacingRight=4;overflow=hidden;rotatable=0;points=[[0,0.5],[1,0.5]];portConstraint=eastwest;" vertex="1" parent="axCRcWsU4pVJFEmlz38G-90">
          <mxGeometry y="63.99213350736178" width="221" height="32" as="geometry" />
        </mxCell>
        <mxCell id="axCRcWsU4pVJFEmlz38G-93" value="-jobID : int" style="text;strokeColor=none;fillColor=none;align=left;verticalAlign=top;spacingLeft=4;spacingRight=4;overflow=hidden;rotatable=0;points=[[0,0.5],[1,0.5]];portConstraint=eastwest;" vertex="1" parent="axCRcWsU4pVJFEmlz38G-90">
          <mxGeometry y="95.99213350736179" width="221" height="32" as="geometry" />
        </mxCell>
        <mxCell id="axCRcWsU4pVJFEmlz38G-94" value="-status : String" style="text;strokeColor=none;fillColor=none;align=left;verticalAlign=top;spacingLeft=4;spacingRight=4;overflow=hidden;rotatable=0;points=[[0,0.5],[1,0.5]];portConstraint=eastwest;" vertex="1" parent="axCRcWsU4pVJFEmlz38G-90">
          <mxGeometry y="127.99213350736179" width="221" height="32" as="geometry" />
        </mxCell>
        <mxCell id="axCRcWsU4pVJFEmlz38G-95" value="-dateApplied : Date" style="text;strokeColor=none;fillColor=none;align=left;verticalAlign=top;spacingLeft=4;spacingRight=4;overflow=hidden;rotatable=0;points=[[0,0.5],[1,0.5]];portConstraint=eastwest;" vertex="1" parent="axCRcWsU4pVJFEmlz38G-90">
          <mxGeometry y="159.99213350736179" width="221" height="32" as="geometry" />
        </mxCell>
        <mxCell id="axCRcWsU4pVJFEmlz38G-97" value="" style="curved=0;startArrow=none;startSize=16;startFill=0;endArrow=none;exitX=0;exitY=0.65;entryX=0.5;entryY=0;rounded=0;endFill=0;" edge="1" parent="WIyWlLk6GJQsqaUBKTNV-1" source="axCRcWsU4pVJFEmlz38G-58" target="axCRcWsU4pVJFEmlz38G-64">
          <mxGeometry relative="1" as="geometry">
            <Array as="points">
              <mxPoint x="114" y="847" />
            </Array>
          </mxGeometry>
        </mxCell>
        <mxCell id="axCRcWsU4pVJFEmlz38G-114" value="can be&amp;nbsp;" style="edgeLabel;html=1;align=center;verticalAlign=middle;resizable=0;points=[];" vertex="1" connectable="0" parent="axCRcWsU4pVJFEmlz38G-97">
          <mxGeometry x="-0.1724" y="-1" relative="1" as="geometry">
            <mxPoint as="offset" />
          </mxGeometry>
        </mxCell>
        <mxCell id="axCRcWsU4pVJFEmlz38G-98" value="" style="curved=0;startArrow=none;startSize=16;startFill=0;endArrow=none;exitX=0;exitY=0.81;entryX=0.5;entryY=0;rounded=0;endFill=0;" edge="1" parent="WIyWlLk6GJQsqaUBKTNV-1" source="axCRcWsU4pVJFEmlz38G-58" target="axCRcWsU4pVJFEmlz38G-67">
          <mxGeometry relative="1" as="geometry">
            <Array as="points">
              <mxPoint x="307" y="847" />
            </Array>
          </mxGeometry>
        </mxCell>
        <mxCell id="axCRcWsU4pVJFEmlz38G-115" value="can be&amp;nbsp;" style="edgeLabel;html=1;align=center;verticalAlign=middle;resizable=0;points=[];" vertex="1" connectable="0" parent="axCRcWsU4pVJFEmlz38G-98">
          <mxGeometry x="-0.0565" y="2" relative="1" as="geometry">
            <mxPoint as="offset" />
          </mxGeometry>
        </mxCell>
        <mxCell id="axCRcWsU4pVJFEmlz38G-99" value="" style="curved=0;startArrow=none;startSize=16;startFill=0;endArrow=none;exitX=0.5;exitY=1;entryX=0.5;entryY=0;rounded=0;endFill=0;" edge="1" parent="WIyWlLk6GJQsqaUBKTNV-1" source="axCRcWsU4pVJFEmlz38G-58" target="axCRcWsU4pVJFEmlz38G-72">
          <mxGeometry relative="1" as="geometry">
            <Array as="points" />
          </mxGeometry>
        </mxCell>
        <mxCell id="axCRcWsU4pVJFEmlz38G-116" value="Text" style="edgeLabel;html=1;align=center;verticalAlign=middle;resizable=0;points=[];" vertex="1" connectable="0" parent="axCRcWsU4pVJFEmlz38G-99">
          <mxGeometry x="-0.0019" y="-1" relative="1" as="geometry">
            <mxPoint as="offset" />
          </mxGeometry>
        </mxCell>
        <mxCell id="axCRcWsU4pVJFEmlz38G-118" value="can be&amp;nbsp;" style="edgeLabel;html=1;align=center;verticalAlign=middle;resizable=0;points=[];" vertex="1" connectable="0" parent="axCRcWsU4pVJFEmlz38G-99">
          <mxGeometry x="-0.0019" y="-1" relative="1" as="geometry">
            <mxPoint as="offset" />
          </mxGeometry>
        </mxCell>
        <mxCell id="axCRcWsU4pVJFEmlz38G-100" value="" style="curved=0;startArrow=none;startSize=16;startFill=0;endArrow=none;exitX=1;exitY=0.78;entryX=0.5;entryY=0;rounded=0;endFill=0;" edge="1" parent="WIyWlLk6GJQsqaUBKTNV-1" source="axCRcWsU4pVJFEmlz38G-58" target="axCRcWsU4pVJFEmlz38G-74">
          <mxGeometry relative="1" as="geometry">
            <Array as="points">
              <mxPoint x="672" y="847" />
            </Array>
          </mxGeometry>
        </mxCell>
        <mxCell id="axCRcWsU4pVJFEmlz38G-119" value="can be&amp;nbsp;" style="edgeLabel;html=1;align=center;verticalAlign=middle;resizable=0;points=[];" vertex="1" connectable="0" parent="axCRcWsU4pVJFEmlz38G-100">
          <mxGeometry x="-0.2308" y="-3" relative="1" as="geometry">
            <mxPoint as="offset" />
          </mxGeometry>
        </mxCell>
        <mxCell id="axCRcWsU4pVJFEmlz38G-101" value="" style="curved=0;startArrow=none;endArrow=none;endSize=12;exitX=0.5;exitY=1;entryX=0.5;entryY=0;rounded=0;startFill=0;endFill=0;" edge="1" parent="WIyWlLk6GJQsqaUBKTNV-1" source="axCRcWsU4pVJFEmlz38G-64" target="axCRcWsU4pVJFEmlz38G-77">
          <mxGeometry relative="1" as="geometry">
            <Array as="points" />
          </mxGeometry>
        </mxCell>
        <mxCell id="axCRcWsU4pVJFEmlz38G-106" value="have" style="edgeLabel;html=1;align=center;verticalAlign=middle;resizable=0;points=[];" vertex="1" connectable="0" parent="axCRcWsU4pVJFEmlz38G-101">
          <mxGeometry x="-0.0977" y="-1" relative="1" as="geometry">
            <mxPoint as="offset" />
          </mxGeometry>
        </mxCell>
        <mxCell id="axCRcWsU4pVJFEmlz38G-102" value="" style="curved=0;startArrow=none;endArrow=none;endSize=12;exitX=0.5;exitY=1;entryX=0;entryY=0.3;rounded=0;startFill=0;endFill=0;" edge="1" parent="WIyWlLk6GJQsqaUBKTNV-1" source="axCRcWsU4pVJFEmlz38G-77" target="axCRcWsU4pVJFEmlz38G-90">
          <mxGeometry relative="1" as="geometry">
            <Array as="points">
              <mxPoint x="114" y="1389" />
            </Array>
          </mxGeometry>
        </mxCell>
        <mxCell id="axCRcWsU4pVJFEmlz38G-103" value="" style="curved=0;startArrow=none;endArrow=none;endSize=12;exitX=0.5;exitY=1;entryX=0.5;entryY=0;rounded=0;startFill=0;endFill=0;" edge="1" parent="WIyWlLk6GJQsqaUBKTNV-1" source="axCRcWsU4pVJFEmlz38G-72" target="axCRcWsU4pVJFEmlz38G-82">
          <mxGeometry relative="1" as="geometry">
            <Array as="points" />
          </mxGeometry>
        </mxCell>
        <mxCell id="axCRcWsU4pVJFEmlz38G-107" value="post" style="edgeLabel;html=1;align=center;verticalAlign=middle;resizable=0;points=[];" vertex="1" connectable="0" parent="axCRcWsU4pVJFEmlz38G-103">
          <mxGeometry x="-0.0314" y="-3" relative="1" as="geometry">
            <mxPoint as="offset" />
          </mxGeometry>
        </mxCell>
        <mxCell id="axCRcWsU4pVJFEmlz38G-104" value="" style="curved=0;startArrow=none;endArrow=none;endSize=12;exitX=0.5;exitY=1;entryX=0.5;entryY=0;rounded=0;startFill=0;endFill=0;" edge="1" parent="WIyWlLk6GJQsqaUBKTNV-1" source="axCRcWsU4pVJFEmlz38G-82" target="axCRcWsU4pVJFEmlz38G-90">
          <mxGeometry relative="1" as="geometry">
            <Array as="points" />
          </mxGeometry>
        </mxCell>
        <mxCell id="axCRcWsU4pVJFEmlz38G-108" value="have" style="edgeLabel;html=1;align=center;verticalAlign=middle;resizable=0;points=[];" vertex="1" connectable="0" parent="axCRcWsU4pVJFEmlz38G-104">
          <mxGeometry x="-0.0055" y="2" relative="1" as="geometry">
            <mxPoint as="offset" />
          </mxGeometry>
        </mxCell>
        <mxCell id="axCRcWsU4pVJFEmlz38G-110" style="edgeStyle=orthogonalEdgeStyle;rounded=0;orthogonalLoop=1;jettySize=auto;html=1;entryX=0.038;entryY=0.017;entryDx=0;entryDy=0;entryPerimeter=0;endArrow=none;endFill=0;" edge="1" parent="WIyWlLk6GJQsqaUBKTNV-1">
          <mxGeometry relative="1" as="geometry">
            <mxPoint x="160" y="983.7931823730469" as="sourcePoint" />
            <mxPoint x="376.8979999999999" y="1334.2638662696252" as="targetPoint" />
            <Array as="points">
              <mxPoint x="160" y="1088" />
              <mxPoint x="290" y="1088" />
              <mxPoint x="290" y="1298" />
              <mxPoint x="377" y="1298" />
            </Array>
          </mxGeometry>
        </mxCell>
        <mxCell id="axCRcWsU4pVJFEmlz38G-111" value="Text" style="edgeLabel;html=1;align=center;verticalAlign=middle;resizable=0;points=[];" vertex="1" connectable="0" parent="axCRcWsU4pVJFEmlz38G-110">
          <mxGeometry x="0.1585" y="2" relative="1" as="geometry">
            <mxPoint as="offset" />
          </mxGeometry>
        </mxCell>
        <mxCell id="axCRcWsU4pVJFEmlz38G-112" value="submits" style="edgeLabel;html=1;align=center;verticalAlign=middle;resizable=0;points=[];" vertex="1" connectable="0" parent="axCRcWsU4pVJFEmlz38G-110">
          <mxGeometry x="0.1585" y="1" relative="1" as="geometry">
            <mxPoint as="offset" />
          </mxGeometry>
        </mxCell>
      </root>
    </mxGraphModel>
  </diagram>
</mxfile>
